<svg width="3345" height="1370" viewBox="0 0 3345 1370" fill="none" xmlns="http://www.w3.org/2000/svg">
<path d="M3344.51 462.841C3301.95 539.685 3249.34 616.53 3186.68 693.374C3125.21 770.219 3055.46 844.108 2977.43 915.041C2899.4 984.792 2814.28 1048.04 2722.07 1104.79C2662.96 1141.44 2597.94 1176.9 2527 1211.19C2457.25 1245.47 2381.59 1276.21 2300.02 1303.4C2219.62 1330.59 2133.91 1352.46 2042.88 1369.02L1924.07 1186.36C2023.38 1170.99 2115 1150.9 2198.94 1126.07C2282.87 1100.06 2359.72 1071.09 2429.47 1039.17C2500.4 1006.07 2564.24 972.379 2620.99 938.095C2715.57 880.166 2802.46 813.37 2881.67 737.708C2962.06 662.046 3032.4 584.019 3092.7 503.628C3152.99 423.237 3200.87 345.209 3236.34 269.547L3344.51 462.841ZM629.534 207.481C680.37 200.388 737.708 227.579 801.548 289.055C839.379 323.339 879.575 362.352 922.135 406.095C964.695 449.837 1006.66 493.579 1048.04 537.321C1090.6 581.064 1129.02 621.259 1163.31 657.908C1203.5 700.468 1248.43 748.94 1298.08 803.322C1348.92 856.522 1400.34 911.496 1452.36 968.242C1505.56 1023.81 1554.62 1076.42 1599.55 1126.07L1445.27 1289.22C1405.07 1238.38 1361.92 1185.77 1315.82 1131.39C1269.71 1077.01 1224.19 1023.81 1179.27 971.789C1135.53 919.771 1095.33 872.482 1058.68 829.922C1032.67 800.366 1003.71 768.447 971.788 734.162C941.05 699.878 909.722 665.593 877.802 631.309C847.064 597.024 818.099 565.695 790.908 537.321C763.717 508.948 741.255 485.894 723.521 468.161C691.601 437.423 665.001 423.237 643.721 425.602C622.441 426.784 597.614 445.109 569.241 480.575C549.143 504.22 526.09 532.593 500.081 565.695C475.254 598.798 449.245 633.673 422.054 670.322C394.863 705.789 368.263 740.664 342.254 774.948C316.245 808.05 293.783 836.424 274.867 860.068C255.952 884.895 237.036 910.905 218.12 938.096C199.205 965.287 182.653 988.932 168.467 1009.03L0 837.016C24.8267 816.918 47.2889 797.411 67.3867 778.495C87.4845 759.58 109.947 737.709 134.773 712.882C156.053 691.602 180.289 665.002 207.48 633.082C234.672 601.162 263.636 566.286 294.374 528.455C326.294 490.624 358.214 452.202 390.134 413.188C422.054 374.175 452.201 337.526 480.574 303.241C530.228 245.312 579.881 213.393 629.534 207.481ZM2106.72 0C2138.64 21.28 2175.29 47.8797 2216.67 79.7998C2258.05 110.538 2300.02 143.641 2342.58 179.107C2386.32 214.574 2427.7 248.859 2466.71 281.961C2505.72 315.063 2537.05 344.618 2560.7 370.627L2420.6 514.268C2398.14 490.623 2368.58 462.25 2331.94 429.147C2295.29 394.863 2255.68 359.987 2213.12 324.521C2171.74 287.872 2130.37 253.587 2088.99 221.667C2047.61 188.565 2010.37 160.783 1977.27 138.32L2106.72 0ZM1159.76 106.401C1175.13 128.864 1192.86 157.237 1212.96 191.521C1234.24 224.624 1254.93 258.908 1275.03 294.375C1296.31 329.842 1313.45 361.17 1326.46 388.361L1198.78 445.108C1183.41 410.824 1166.86 377.722 1149.12 345.802C1131.39 312.699 1113.06 280.188 1094.15 248.268C1075.23 216.348 1055.73 186.793 1035.63 159.602L1159.76 106.401ZM1392.07 14.1875C1408.62 35.4675 1427.54 62.6586 1448.82 95.7607C1470.1 128.863 1491.38 163.148 1512.66 198.614C1533.94 232.899 1551.08 263.637 1564.08 290.828L1438.18 351.121C1422.81 316.837 1405.66 283.734 1386.75 251.814C1367.83 218.712 1348.33 187.384 1328.23 157.828C1309.31 127.09 1289.22 98.1256 1267.94 70.9346L1392.07 14.1875Z" fill="white"/>
</svg>
